<svg width="1524" height="1038" viewBox="0 0 1524 1038" fill="none" xmlns="http://www.w3.org/2000/svg">
<g filter="url(#filter0_d_36_19571)">
<path d="M541.147 0.00313858C244.464 -0.77054 92.499 141.581 29.1853 329.635C-34.2187 563.823 14.708 908.791 217.556 977.578C417.983 1052.4 690.355 780.036 878.527 790.681C1066.7 801.326 1091.26 1047.02 1302.99 1029.89C1514.73 1012.76 1524 902.96 1524 902.96V0.00313858C1524 0.00313858 837.83 0.776817 541.147 0.00313858Z" fill="url(#paint0_linear_36_19571)"/>
</g>
<circle cx="265.5" cy="795.5" r="136.5" fill="url(#paint1_radial_36_19571)"/>
<ellipse cx="893.5" cy="303.5" rx="98.5" ry="85.5" fill="url(#paint2_radial_36_19571)"/>
<circle cx="60.5" cy="142.5" r="43.5" fill="url(#paint3_radial_36_19571)"/>
<defs>
<filter id="filter0_d_36_19571" x="0.212891" y="0" width="1526.79" height="1037.75" filterUnits="userSpaceOnUse" color-interpolation-filters="sRGB">
<feFlood flood-opacity="0" result="BackgroundImageFix"/>
<feColorMatrix in="SourceAlpha" type="matrix" values="0 0 0 0 0 0 0 0 0 0 0 0 0 0 0 0 0 0 127 0" result="hardAlpha"/>
<feOffset dy="4"/>
<feGaussianBlur stdDeviation="1.5"/>
<feComposite in2="hardAlpha" operator="out"/>
<feColorMatrix type="matrix" values="0 0 0 0 0 0 0 0 0 0 0 0 0 0 0 0 0 0 0.160784 0"/>
<feBlend mode="normal" in2="BackgroundImageFix" result="effect1_dropShadow_36_19571"/>
<feBlend mode="normal" in="SourceGraphic" in2="effect1_dropShadow_36_19571" result="shape"/>
</filter>
<linearGradient id="paint0_linear_36_19571" x1="558.81" y1="950.597" x2="829.192" y2="950.597" gradientUnits="userSpaceOnUse">
<stop stop-color="#352975"/>
<stop offset="1" stop-color="#2084BF"/>
</linearGradient>
<radialGradient id="paint1_radial_36_19571" cx="0" cy="0" r="1" gradientUnits="userSpaceOnUse" gradientTransform="translate(157.278 632.971) scale(136.5)">
<stop stop-color="#2084BF"/>
<stop offset="1" stop-color="#352975"/>
</radialGradient>
<radialGradient id="paint2_radial_36_19571" cx="0" cy="0" r="1" gradientUnits="userSpaceOnUse" gradientTransform="translate(815.406 201.696) scale(98.5 85.5)">
<stop stop-color="#2084BF"/>
<stop offset="1" stop-color="#352975"/>
</radialGradient>
<radialGradient id="paint3_radial_36_19571" cx="0" cy="0" r="1" gradientUnits="userSpaceOnUse" gradientTransform="translate(26.0118 90.7049) scale(43.5)">
<stop stop-color="#2084BF"/>
<stop offset="1" stop-color="#352975"/>
</radialGradient>
</defs>
</svg>
