<svg width="1527" height="577" viewBox="0 0 1527 577" fill="none" xmlns="http://www.w3.org/2000/svg">
<g filter="url(#filter0_d_47_19572)">
<path d="M542.348 -155.224C245.122 -155.675 92.8787 -72.7658 29.4491 36.7616C-34.0709 173.159 14.9453 374.077 218.165 414.14C418.958 457.721 665.729 328.047 854.244 334.247C1042.76 340.447 1093.47 454.585 1305.59 444.609C1517.71 434.633 1527 385.642 1527 385.642V-155.224C1527 -155.224 839.574 -154.774 542.348 -155.224Z" fill="url(#paint0_linear_47_19572)"/>
</g>
<circle cx="1390.5" cy="440.5" r="136.5" fill="url(#paint1_radial_47_19572)"/>
<ellipse cx="911.5" cy="303.5" rx="98.5" ry="85.5" fill="url(#paint2_radial_47_19572)"/>
<circle cx="66.5" cy="273.5" r="43.5" fill="url(#paint3_radial_47_19572)"/>
<defs>
<filter id="filter0_d_47_19572" x="0.429199" y="-155.226" width="1529.57" height="607.452" filterUnits="userSpaceOnUse" color-interpolation-filters="sRGB">
<feFlood flood-opacity="0" result="BackgroundImageFix"/>
<feColorMatrix in="SourceAlpha" type="matrix" values="0 0 0 0 0 0 0 0 0 0 0 0 0 0 0 0 0 0 127 0" result="hardAlpha"/>
<feOffset dy="4"/>
<feGaussianBlur stdDeviation="1.5"/>
<feComposite in2="hardAlpha" operator="out"/>
<feColorMatrix type="matrix" values="0 0 0 0 0 0 0 0 0 0 0 0 0 0 0 0 0 0 0.160784 0"/>
<feBlend mode="normal" in2="BackgroundImageFix" result="effect1_dropShadow_47_19572"/>
<feBlend mode="normal" in="SourceGraphic" in2="effect1_dropShadow_47_19572" result="shape"/>
</filter>
<linearGradient id="paint0_linear_47_19572" x1="560.043" y1="398.536" x2="830.919" y2="398.536" gradientUnits="userSpaceOnUse">
<stop stop-color="#352975"/>
<stop offset="1" stop-color="#2084BF"/>
</linearGradient>
<radialGradient id="paint1_radial_47_19572" cx="0" cy="0" r="1" gradientUnits="userSpaceOnUse" gradientTransform="translate(1282.28 277.971) scale(136.5)">
<stop stop-color="#2084BF"/>
<stop offset="1" stop-color="#352975"/>
</radialGradient>
<radialGradient id="paint2_radial_47_19572" cx="0" cy="0" r="1" gradientUnits="userSpaceOnUse" gradientTransform="translate(833.406 201.696) scale(98.5 85.5)">
<stop stop-color="#2084BF"/>
<stop offset="1" stop-color="#352975"/>
</radialGradient>
<radialGradient id="paint3_radial_47_19572" cx="0" cy="0" r="1" gradientUnits="userSpaceOnUse" gradientTransform="translate(32.0118 221.705) scale(43.5)">
<stop stop-color="#2084BF"/>
<stop offset="1" stop-color="#352975"/>
</radialGradient>
</defs>
</svg>
