<svg width="1523" height="971" viewBox="0 0 1523 971" fill="none" xmlns="http://www.w3.org/2000/svg">
<g filter="url(#filter0_d_62_19573)">
<path d="M540.858 0.00270545C146.686 -10.4946 92.4672 117.856 29.1898 274.397C-34.1779 469.343 14.7209 756.503 217.453 813.764C417.764 876.052 663.943 690.715 852.006 699.576C1040.07 708.437 1090.66 871.569 1302.27 857.311C1513.88 843.053 1523.15 773.033 1523.15 773.033V0.00270545C1523.15 0.00270545 937.08 -0.614732 540.858 0.00270545Z" fill="url(#paint0_linear_62_19573)"/>
</g>
<circle cx="1196.5" cy="834.5" r="136.5" fill="url(#paint1_radial_62_19573)"/>
<ellipse cx="907.5" cy="303.5" rx="98.5" ry="85.5" fill="url(#paint2_radial_62_19573)"/>
<circle cx="62.5" cy="273.5" r="43.5" fill="url(#paint3_radial_62_19573)"/>
<defs>
<filter id="filter0_d_62_19573" x="0.2323" y="-0.598633" width="1525.92" height="865.792" filterUnits="userSpaceOnUse" color-interpolation-filters="sRGB">
<feFlood flood-opacity="0" result="BackgroundImageFix"/>
<feColorMatrix in="SourceAlpha" type="matrix" values="0 0 0 0 0 0 0 0 0 0 0 0 0 0 0 0 0 0 127 0" result="hardAlpha"/>
<feOffset dy="4"/>
<feGaussianBlur stdDeviation="1.5"/>
<feComposite in2="hardAlpha" operator="out"/>
<feColorMatrix type="matrix" values="0 0 0 0 0 0 0 0 0 0 0 0 0 0 0 0 0 0 0.160784 0"/>
<feBlend mode="normal" in2="BackgroundImageFix" result="effect1_dropShadow_62_19573"/>
<feBlend mode="normal" in="SourceGraphic" in2="effect1_dropShadow_62_19573" result="shape"/>
</filter>
<linearGradient id="paint0_linear_62_19573" x1="558.51" y1="791.415" x2="828.737" y2="791.415" gradientUnits="userSpaceOnUse">
<stop stop-color="#352975"/>
<stop offset="1" stop-color="#2084BF"/>
</linearGradient>
<radialGradient id="paint1_radial_62_19573" cx="0" cy="0" r="1" gradientUnits="userSpaceOnUse" gradientTransform="translate(1088.28 671.971) scale(136.5)">
<stop stop-color="#2084BF"/>
<stop offset="1" stop-color="#352975"/>
</radialGradient>
<radialGradient id="paint2_radial_62_19573" cx="0" cy="0" r="1" gradientUnits="userSpaceOnUse" gradientTransform="translate(829.406 201.696) scale(98.5 85.5)">
<stop stop-color="#2084BF"/>
<stop offset="1" stop-color="#352975"/>
</radialGradient>
<radialGradient id="paint3_radial_62_19573" cx="0" cy="0" r="1" gradientUnits="userSpaceOnUse" gradientTransform="translate(28.0118 221.705) scale(43.5)">
<stop stop-color="#2084BF"/>
<stop offset="1" stop-color="#352975"/>
</radialGradient>
</defs>
</svg>
