<svg width="38" height="38" viewBox="0 0 38 38" fill="none" xmlns="http://www.w3.org/2000/svg">
<path d="M18.9364 0.527344C13.8566 0.527344 13.2224 0.550717 11.2279 0.639535C9.2365 0.733028 7.88085 1.04623 6.68881 1.50902C5.45938 1.98584 4.41537 2.62626 3.37604 3.66559C2.33671 4.70493 1.69473 5.74737 1.21947 6.97836C0.756679 8.1704 0.441919 9.52605 0.349985 11.5175C0.256492 13.512 0.237793 14.1462 0.237793 19.226C0.237793 24.3057 0.261166 24.9399 0.349985 26.9345C0.443478 28.9243 0.756679 30.2815 1.21947 31.4735C1.69628 32.7014 2.33671 33.747 3.37604 34.7863C4.41537 35.8241 5.45782 36.4676 6.68881 36.9429C7.88241 37.4041 9.23805 37.7204 11.2279 37.8124C13.2224 37.9059 13.8566 37.9246 18.9364 37.9246C24.0162 37.9246 24.6504 37.9012 26.6449 37.8124C28.6347 37.7189 29.9919 37.4041 31.184 36.9429C32.4119 36.4661 33.4574 35.8241 34.4967 34.7863C35.5345 33.747 36.1781 32.7061 36.6533 31.4735C37.1146 30.2815 37.4309 28.9243 37.5228 26.9345C37.6163 24.9399 37.635 24.3057 37.635 19.226C37.635 14.1462 37.6116 13.512 37.5228 11.5175C37.4293 9.52761 37.1146 8.16884 36.6533 6.97836C36.1765 5.74893 35.5345 4.70492 34.4967 3.66559C33.4574 2.62626 32.4165 1.98428 31.184 1.50902C29.9919 1.04623 28.6347 0.73147 26.6449 0.639535C24.6504 0.546042 24.0162 0.527344 18.9364 0.527344ZM18.9364 3.89309C23.9274 3.89309 24.5226 3.91803 26.4937 4.00373C28.3169 4.08943 29.3063 4.39172 29.9639 4.65039C30.8396 4.98852 31.4598 5.39366 32.1174 6.04655C32.7702 6.701 33.1754 7.32273 33.5135 8.19845C33.7691 8.85602 34.0745 9.84549 34.1571 11.6686C34.2459 13.6413 34.2661 14.2334 34.2661 19.226C34.2661 24.2185 34.2428 24.8122 34.1508 26.7833C34.0558 28.6064 33.7519 29.5959 33.4948 30.2535C33.1458 31.1292 32.7484 31.7494 32.094 32.4069C31.4411 33.0598 30.81 33.4649 29.9436 33.8031C29.2892 34.0586 28.2841 34.364 26.461 34.4466C24.4759 34.5354 23.8915 34.5557 18.8897 34.5557C13.8862 34.5557 13.3019 34.5323 11.3183 34.4404C9.4936 34.3453 8.48855 34.0415 7.8341 33.7844C6.94748 33.4353 6.33821 33.038 5.68532 32.3835C5.02931 31.7307 4.61015 31.0996 4.28292 30.2332C4.02582 29.5788 3.72352 28.5737 3.62847 26.7506C3.55835 24.7872 3.53342 24.1811 3.53342 19.2026C3.53342 14.2225 3.55835 13.6148 3.62847 11.6281C3.72352 9.80497 4.02582 8.80148 4.28292 8.14703C4.61015 7.25885 5.02931 6.65114 5.68532 5.99513C6.33821 5.34224 6.94748 4.92152 7.8341 4.59585C8.48855 4.33719 9.47179 4.03333 11.2949 3.93984C13.2816 3.86972 13.866 3.84635 18.8663 3.84635L18.9364 3.89309ZM18.9364 9.62422C13.6307 9.62422 9.33466 13.9249 9.33466 19.226C9.33466 24.5317 13.6353 28.8277 18.9364 28.8277C24.2421 28.8277 28.5381 24.527 28.5381 19.226C28.5381 13.9202 24.2374 9.62422 18.9364 9.62422ZM18.9364 25.4588C15.4927 25.4588 12.7035 22.6696 12.7035 19.226C12.7035 15.7823 15.4927 12.9931 18.9364 12.9931C22.3801 12.9931 25.1693 15.7823 25.1693 19.226C25.1693 22.6696 22.3801 25.4588 18.9364 25.4588ZM31.1622 9.24557C31.1622 10.4844 30.1556 11.4894 28.9183 11.4894C27.6796 11.4894 26.6745 10.4828 26.6745 9.24557C26.6745 8.00835 27.6811 7.0033 28.9183 7.0033C30.154 7.00174 31.1622 8.00835 31.1622 9.24557Z" fill="url(#paint0_linear_1_7067)"/>
<defs>
<linearGradient id="paint0_linear_1_7067" x1="9.5871" y1="9.87665" x2="9.5871" y2="9.87665" gradientUnits="userSpaceOnUse">
<stop stop-color="#EAA462"/>
<stop offset="0.151624" stop-color="#D73851"/>
<stop offset="0.5" stop-color="#AE378C"/>
<stop offset="0.631579" stop-color="#9338AE"/>
<stop offset="1" stop-color="#5C3FC7"/>
</linearGradient>
</defs>
</svg>
