<svg width="37" height="38" viewBox="0 0 37 38" fill="none" xmlns="http://www.w3.org/2000/svg">
<path d="M33.9637 0.527344H2.63554C1.20004 0.527344 0.0336914 1.71 0.0336914 3.16182V34.4329C0.0336914 35.8847 1.20004 37.0674 2.63554 37.0674H33.9637C35.3992 37.0674 36.5737 35.8847 36.5737 34.4329V3.16182C36.5737 1.71 35.3992 0.527344 33.9637 0.527344ZM11.0773 31.8474H5.6615V14.4093H11.0854V31.8474H11.0773ZM8.36938 12.0277C6.6321 12.0277 5.22922 10.6166 5.22922 8.88751C5.22922 7.15839 6.6321 5.74735 8.36938 5.74735C10.0985 5.74735 11.5095 7.15839 11.5095 8.88751C11.5095 10.6248 10.1067 12.0277 8.36938 12.0277ZM31.3782 31.8474H25.9624V23.3649C25.9624 21.3421 25.9216 18.7403 23.1485 18.7403C20.3264 18.7403 19.8942 20.9425 19.8942 23.2181V31.8474H14.4784V14.4093H19.6739V16.7909H19.7473C20.4733 15.4207 22.2432 13.977 24.8776 13.977C30.3586 13.977 31.3782 17.5902 31.3782 22.2883V31.8474Z" fill="#3981DD"/>
</svg>
