<svg width="29" height="29" viewBox="0 0 29 29" fill="none" xmlns="http://www.w3.org/2000/svg">
<path d="M26.115 0.747925H2.65899C1.5842 0.747925 0.710938 1.6334 0.710938 2.7204V26.1337C0.710938 27.2207 1.5842 28.1062 2.65899 28.1062H26.115C27.1898 28.1062 28.0691 27.2207 28.0691 26.1337V2.7204C28.0691 1.6334 27.1898 0.747925 26.115 0.747925ZM8.97946 24.1978H4.92459V11.1416H8.98557V24.1978H8.97946ZM6.95202 9.35844C5.65129 9.35844 4.60093 8.30197 4.60093 7.00734C4.60093 5.71271 5.65129 4.65624 6.95202 4.65624C8.24665 4.65624 9.30312 5.71271 9.30312 7.00734C9.30312 8.30808 8.25276 9.35844 6.95202 9.35844ZM24.1791 24.1978H20.1243V17.8468C20.1243 16.3323 20.0937 14.3843 18.0174 14.3843C15.9045 14.3843 15.5808 16.0331 15.5808 17.7369V24.1978H11.526V11.1416H15.416V12.9248H15.4709C16.0144 11.8988 17.3396 10.818 19.3121 10.818C23.4158 10.818 24.1791 13.5232 24.1791 17.0407V24.1978Z" fill="black"/>
</svg>
