<svg width="31" height="31" viewBox="0 0 31 31" fill="none" xmlns="http://www.w3.org/2000/svg">
<path d="M15.2941 0.380371C6.92789 0.380371 0.149414 7.15886 0.149414 15.5251C0.149414 23.8913 6.92789 30.6698 15.2941 30.6698C23.6604 30.6698 30.4388 23.8913 30.4388 15.5251C30.4388 7.15886 23.6604 0.380371 15.2941 0.380371ZM25.645 21.0761C25.4313 21.5708 24.5397 21.9311 22.9092 22.1876C22.8237 22.3036 22.7566 22.786 22.6466 23.1585C22.5795 23.3845 22.4207 23.5188 22.152 23.5188H22.1398C21.7612 23.5188 21.3581 23.3417 20.5642 23.3417C19.4895 23.3417 19.1169 23.586 18.2803 24.1784C17.3948 24.8074 16.546 25.3448 15.2758 25.2898C13.9934 25.3875 12.9186 24.6058 12.314 24.1784C11.4713 23.586 11.1049 23.3417 10.0301 23.3417C9.26678 23.3417 8.78434 23.531 8.45458 23.531C8.12482 23.531 7.99657 23.3295 7.94772 23.1646C7.8378 22.7921 7.77063 22.3036 7.68513 22.1876C6.8424 22.0593 4.94931 21.7296 4.90657 20.8807C4.89435 20.6609 5.04702 20.4655 5.26686 20.4288C8.09428 19.9647 9.36448 17.064 9.41945 16.9419C9.41945 16.9358 9.42555 16.9297 9.43166 16.9235C9.58433 16.6182 9.61486 16.3617 9.52937 16.1602C9.32174 15.6778 8.43626 15.5068 8.06375 15.3541C7.09888 14.9755 6.96454 14.5358 7.0256 14.2366C7.12331 13.7175 7.90497 13.3938 8.36298 13.6076C8.72328 13.7786 9.04693 13.8641 9.32174 13.8641C9.52326 13.8641 9.65761 13.8152 9.72478 13.7786C9.63929 12.3191 9.43777 10.2367 9.95684 9.07027C11.3309 5.99858 14.2377 5.75431 15.0926 5.75431C15.1292 5.75431 15.4651 5.7482 15.5018 5.7482C17.6208 5.7482 19.6543 6.8352 20.6497 9.06417C21.1688 10.2306 20.9673 12.3068 20.8818 13.7725C20.949 13.8091 21.0589 13.8519 21.2299 13.858C21.4925 13.8457 21.7917 13.7603 22.1276 13.6015C22.3718 13.4855 22.7138 13.5038 22.9581 13.6015C23.3428 13.7419 23.5871 14.0167 23.5932 14.3282C23.5993 14.7251 23.2451 15.0671 22.5428 15.3419C22.4573 15.3785 22.3535 15.4091 22.2436 15.4457C21.8467 15.574 21.2421 15.7633 21.0833 16.148C20.9978 16.3495 21.0345 16.606 21.181 16.9113C21.1871 16.9174 21.1871 16.9235 21.1932 16.9297C21.2482 17.0518 22.5184 19.9525 25.3458 20.4166C25.5901 20.4777 25.7794 20.7525 25.645 21.0761Z" fill="black"/>
</svg>
