<svg width="41" height="42" viewBox="0 0 41 42" fill="none" xmlns="http://www.w3.org/2000/svg">
<path d="M20.4062 0.790039C9.23215 0.790039 0.178711 9.84349 0.178711 21.0176C0.178711 32.1917 9.23215 41.2451 20.4062 41.2451C31.5803 41.2451 40.6337 32.1917 40.6337 21.0176C40.6337 9.84349 31.5803 0.790039 20.4062 0.790039ZM34.2311 28.4316C33.9456 29.0923 32.7548 29.5735 30.5771 29.9161C30.4629 30.071 30.3731 30.7154 30.2263 31.2129C30.1366 31.5147 29.9246 31.6941 29.5657 31.6941H29.5494C29.0437 31.6941 28.5054 31.4576 27.4451 31.4576C26.0096 31.4576 25.512 31.7838 24.3946 32.575C23.212 33.4151 22.0782 34.1328 20.3817 34.0594C18.6689 34.1899 17.2334 33.1459 16.426 32.575C15.3004 31.7838 14.811 31.4576 13.3755 31.4576C12.356 31.4576 11.7116 31.7104 11.2712 31.7104C10.8308 31.7104 10.6595 31.4413 10.5942 31.2211C10.4474 30.7235 10.3577 30.071 10.2435 29.9161C9.11796 29.7448 6.58953 29.3043 6.53243 28.1706C6.51612 27.877 6.72003 27.616 7.01365 27.5671C10.79 26.9472 12.4865 23.073 12.5599 22.9098C12.5599 22.9017 12.5681 22.8935 12.5762 22.8854C12.7801 22.4775 12.8209 22.135 12.7067 21.8658C12.4294 21.2215 11.2467 20.9931 10.7492 20.7892C9.46053 20.2835 9.28109 19.6963 9.36265 19.2966C9.49315 18.6033 10.5372 18.171 11.1489 18.4565C11.6301 18.6849 12.0624 18.7991 12.4294 18.7991C12.6986 18.7991 12.878 18.7338 12.9677 18.6849C12.8535 16.7355 12.5844 13.9542 13.2777 12.3964C15.1128 8.2938 18.9952 7.96755 20.1371 7.96755C20.186 7.96755 20.6346 7.95939 20.6835 7.95939C23.5137 7.95939 26.2298 9.41121 27.5592 12.3882C28.2525 13.9461 27.9834 16.7192 27.8692 18.6767C27.9589 18.7257 28.1057 18.7828 28.3341 18.7909C28.6848 18.7746 29.0845 18.6604 29.5331 18.4484C29.8593 18.2934 30.3161 18.3179 30.6423 18.4484C31.1561 18.6359 31.4824 19.003 31.4906 19.4189C31.4987 19.9491 31.0256 20.4059 30.0877 20.7729C29.9735 20.8218 29.8348 20.8626 29.688 20.9115C29.1579 21.0828 28.3504 21.3357 28.1383 21.8495C28.0241 22.1187 28.0731 22.4612 28.2688 22.869C28.277 22.8772 28.277 22.8854 28.2851 22.8935C28.3586 23.0566 30.0551 26.9309 33.8314 27.5507C34.1576 27.6323 34.4105 27.9993 34.2311 28.4316Z" fill="#F4DF7B"/>
</svg>
