<svg width="29" height="32" viewBox="0 0 29 32" fill="none" xmlns="http://www.w3.org/2000/svg">
<path d="M15.1708 0.383233C16.8774 0.357178 18.571 0.370205 20.2646 0.357178C20.3689 2.35042 21.0854 4.38275 22.5445 5.78974C24.0036 7.23582 26.062 7.90023 28.0682 8.1217V13.3719C26.1923 13.3067 24.3032 12.9159 22.5966 12.1082C21.854 11.7695 21.1636 11.3396 20.4861 10.8966C20.4731 14.7007 20.4991 18.5048 20.4601 22.2959C20.3558 24.1198 19.7566 25.9306 18.7013 27.4288C16.9947 29.9301 14.0374 31.5586 11.0019 31.6107C9.13898 31.7149 7.27602 31.2068 5.68664 30.2688C3.05504 28.7185 1.20511 25.8785 0.931527 22.83C0.905472 22.1786 0.892444 21.5272 0.918499 20.8889C1.153 18.4136 2.3776 16.0426 4.27965 14.4271C6.44225 12.5511 9.46468 11.6522 12.2917 12.1864C12.3177 14.1145 12.2396 16.0426 12.2396 17.9707C10.9498 17.5538 9.43862 17.671 8.30521 18.4527C7.48447 18.9868 6.85913 19.8076 6.53344 20.7325C6.25986 21.397 6.33803 22.1265 6.35105 22.83C6.66372 24.9666 8.7221 26.7644 10.9108 26.569C12.3699 26.5559 13.7638 25.7091 14.5194 24.4715C14.767 24.0416 15.0405 23.5986 15.0536 23.0906C15.1838 20.7586 15.1317 18.4397 15.1448 16.1077C15.1578 10.8575 15.1317 5.62038 15.1708 0.383233Z" fill="black"/>
</svg>
