<svg width="37" height="42" viewBox="0 0 37 42" fill="none" xmlns="http://www.w3.org/2000/svg">
<path d="M19.4746 0.129527C21.754 0.0947266 24.016 0.112127 26.278 0.0947266C26.4172 2.75693 27.3742 5.47134 29.323 7.35054C31.2718 9.28194 34.021 10.1693 36.7006 10.4651V17.4774C34.195 17.3904 31.672 16.8684 29.3926 15.7896C28.4008 15.3372 27.4786 14.763 26.5738 14.1714C26.5564 19.2522 26.5912 24.333 26.539 29.3964C26.3998 31.8324 25.5994 34.251 24.19 36.252C21.9106 39.5928 17.9608 41.7678 13.9066 41.8374C11.4184 41.9766 8.93021 41.298 6.80741 40.0452C3.29261 37.9746 0.821813 34.1814 0.456413 30.1098C0.421613 29.2398 0.404213 28.3698 0.439013 27.5172C0.752213 24.2112 2.38781 21.0444 4.92821 18.8868C7.81661 16.3812 11.8534 15.1806 15.6292 15.894C15.664 18.4692 15.5596 21.0444 15.5596 23.6196C13.837 23.0628 11.8186 23.2194 10.3048 24.2634C9.20861 24.9768 8.37341 26.073 7.93841 27.3084C7.57301 28.1958 7.67741 29.1702 7.69481 30.1098C8.11241 32.9634 10.8616 35.3646 13.7848 35.1036C15.7336 35.0862 17.5954 33.9552 18.6046 32.3022C18.9352 31.728 19.3006 31.1364 19.318 30.4578C19.492 27.3432 19.4224 24.246 19.4398 21.1314C19.4572 14.1192 19.4224 7.12434 19.4746 0.129527Z" fill="black"/>
</svg>
