<svg width="28" height="28" viewBox="0 0 28 28" fill="none" xmlns="http://www.w3.org/2000/svg">
<path d="M14.393 0.311523C6.97591 0.311523 0.962542 6.27788 0.962542 13.6384C0.962542 16.1562 1.66677 18.511 2.88977 20.5199L0.46582 27.6698L7.90163 25.3075C9.82574 26.3631 12.0386 26.9653 14.393 26.9653C21.811 26.9653 27.824 20.9981 27.824 13.6384C27.824 6.27788 21.811 0.311523 14.393 0.311523ZM21.0714 18.6995C20.7555 19.4829 19.3265 20.1977 18.696 20.2306C18.0661 20.264 18.0482 20.7188 14.6142 19.2271C11.1807 17.7349 9.11498 14.1069 8.95211 13.8733C8.78912 13.6405 7.62206 11.9773 7.68502 10.3036C7.74841 8.62952 8.66497 7.83974 8.99211 7.51126C9.31888 7.18229 9.69353 7.12335 9.92229 7.11963C10.1927 7.11523 10.3678 7.11157 10.568 7.11896C10.7679 7.12653 11.0682 7.07713 11.3282 7.76865C11.5881 8.46012 12.2102 10.1596 12.2898 10.3328C12.3693 10.5062 12.4185 10.7069 12.296 10.9295C12.1732 11.1526 12.1103 11.2919 11.932 11.4842C11.7528 11.6764 11.555 11.9142 11.3951 12.0612C11.2168 12.224 11.0305 12.4015 11.218 12.7494C11.4054 13.097 12.0518 14.2367 13.0365 15.176C14.3022 16.3833 15.3936 16.7838 15.7295 16.9663C16.0663 17.1497 16.2673 17.1293 16.4761 16.9095C16.684 16.6898 17.3701 15.948 17.6117 15.6168C17.8532 15.2847 18.0795 15.3498 18.3898 15.4746C18.6999 15.5999 20.3536 16.4856 20.6904 16.6685C21.0269 16.851 21.2518 16.9451 21.3322 17.0899C21.4127 17.2352 21.3873 17.9162 21.0714 18.6995Z" fill="black"/>
</svg>
