<svg width="37" height="38" viewBox="0 0 37 38" fill="none" xmlns="http://www.w3.org/2000/svg">
<path d="M19.0037 0.70459C9.09731 0.70459 1.06577 8.67334 1.06577 18.5042C1.06577 21.867 2.00635 25.012 3.6398 27.6952L0.402344 37.2447L10.3337 34.0896C12.9036 35.4995 15.8592 36.3037 19.0037 36.3037C28.9113 36.3037 36.9423 28.3339 36.9423 18.5042C36.9423 8.67334 28.9113 0.70459 19.0037 0.70459ZM27.9235 25.2639C27.5015 26.3101 25.5929 27.2649 24.7508 27.3089C23.9096 27.3535 23.8856 27.9609 19.2991 25.9685C14.7133 23.9756 11.9543 19.1299 11.7368 18.8179C11.5191 18.5069 9.96033 16.2856 10.0444 14.0501C10.1291 11.8142 11.3533 10.7594 11.7902 10.3207C12.2266 9.88128 12.727 9.80258 13.0325 9.7976C13.3937 9.79173 13.6276 9.78683 13.8949 9.7967C14.1619 9.80682 14.5631 9.74083 14.9104 10.6644C15.2575 11.588 16.0884 13.8579 16.1946 14.0892C16.3008 14.3207 16.3666 14.5888 16.203 14.8861C16.0389 15.1841 15.9548 15.3702 15.7168 15.627C15.4774 15.8837 15.2132 16.2013 14.9997 16.3976C14.7615 16.615 14.5127 16.8521 14.7631 17.3168C15.0134 17.7811 15.8767 19.3033 17.192 20.5577C18.8824 22.1703 20.3401 22.7052 20.7887 22.9489C21.2385 23.1939 21.507 23.1667 21.7859 22.8731C22.0635 22.5796 22.9799 21.5889 23.3026 21.1465C23.6252 20.703 23.9275 20.7899 24.3419 20.9566C24.7561 21.124 26.9647 22.3069 27.4146 22.5512C27.864 22.795 28.1644 22.9206 28.2718 23.114C28.3793 23.3081 28.3453 24.2176 27.9235 25.2639Z" fill="#65AE67"/>
</svg>
