<svg width="32" height="23" viewBox="0 0 32 23" fill="none" xmlns="http://www.w3.org/2000/svg">
<path d="M31.2917 3.82905C30.9209 2.5003 29.8826 1.46199 28.5539 1.09116C26.1018 0.434223 16.2334 0.434223 16.2334 0.434223C16.2334 0.434223 6.38982 0.42111 3.91287 1.09116C2.58413 1.46199 1.54582 2.5003 1.17499 3.82905C0.710176 6.33946 0.481024 8.88782 0.490518 11.4409C0.482815 13.9843 0.711967 16.5229 1.17499 19.0238C1.54582 20.3526 2.58413 21.3909 3.91287 21.7617C6.36229 22.42 16.2334 22.42 16.2334 22.42C16.2334 22.42 26.0756 22.42 28.5539 21.7617C29.8826 21.3909 30.9209 20.3526 31.2917 19.0238C31.7451 16.522 31.9646 13.9834 31.9474 11.4409C31.9664 8.88871 31.7469 6.34036 31.2917 3.82905ZM13.0837 16.1496V6.71774L21.2974 11.4409L13.0837 16.1496Z" fill="black"/>
</svg>
