<svg width="47" height="33" viewBox="0 0 47 33" fill="none" xmlns="http://www.w3.org/2000/svg">
<path d="M45.4435 5.68822C44.9013 3.74546 43.3832 2.22734 41.4404 1.68514C37.8553 0.724637 23.4266 0.724637 23.4266 0.724637C23.4266 0.724637 9.03437 0.705465 5.41282 1.68514C3.47006 2.22734 1.95194 3.74546 1.40975 5.68822C0.730147 9.35869 0.395103 13.0847 0.408984 16.8175C0.397721 20.5362 0.732765 24.2479 1.40975 27.9045C1.95195 29.8473 3.47006 31.3654 5.41282 31.9076C8.99411 32.87 23.4266 32.87 23.4266 32.87C23.4266 32.87 37.817 32.87 41.4404 31.9076C43.3832 31.3654 44.9013 29.8473 45.4435 27.9045C46.1064 24.2466 46.4273 20.5349 46.4021 16.8175C46.4299 13.086 46.109 9.36002 45.4435 5.68822ZM18.8216 23.7021V9.91177L30.8308 16.8175L18.8216 23.7021Z" fill="#D65066"/>
</svg>
